Coordinates
version=1
nRows=26
nColumns=24
inDegrees=yes

Units are S.I. units (second, meters, Newtons, ...)
Angles are in degrees.

endheader
time	pelvis_tilt	pelvis_list	pelvis_rotation	pelvis_tx	pelvis_ty	pelvis_tz	hip_flexion_r	hip_adduction_r	hip_rotation_r	knee_angle_r	ankle_angle_r	subtalar_angle_r	mtp_angle_r	hip_flexion_l	hip_adduction_l	hip_rotation_l	knee_angle_l	ankle_angle_l	subtalar_angle_l	mtp_angle_l	lumbar_extension	lumbar_bending	lumbar_rotation
      0.80050000	      2.64328544	     -1.60106271	     -3.24218086	     -0.47287153	      1.07239493	      0.34183689	      7.02322324	      6.54293877	     -2.87026192	    -12.13134544	      0.11189648	     -8.28395552	      2.02930465	     10.73224286	     -3.56631795	     -5.53452221	    -65.92679793	     -3.38140560	     -3.86307253	      4.31535737	      1.26395852	      5.62280573	     -1.24141571
      0.80466667	      2.61360017	     -1.56474358	     -3.31107306	     -0.46781512	      1.07293445	      0.34209219	      6.68800270	      6.51816144	     -2.71784883	    -12.01116057	      0.30543314	     -8.38329903	      2.07564350	     11.36575578	     -3.52850964	     -5.37051629	    -65.87852994	     -2.57929823	     -3.66071517	      4.24542263	      1.25486160	      5.63799474	     -0.99875761
      0.80883333	      2.64477179	     -1.55163250	     -3.32779536	     -0.46273327	      1.07355779	      0.34238815	      6.25916596	      6.52364787	     -2.55917839	    -11.82426073	      0.42934456	     -8.39671731	      2.08661540	     11.92537794	     -3.51270718	     -5.17765134	    -65.73733873	     -2.20231351	     -3.80007221	      4.22934904	      1.19701672	      5.55475910	     -0.93490709
      0.81300000	      2.67564805	     -1.53223323	     -3.36398636	     -0.45768658	      1.07415535	      0.34265000	      5.83747880	      6.51668294	     -2.39731383	    -11.65797763	      0.60274427	     -8.44926791	      2.09806395	     12.46882069	     -3.48181579	     -4.99993383	    -65.54470287	     -1.66239392	     -3.92385046	      4.21262455	      1.12696113	      5.50240565	     -0.85737599
      0.81716667	      2.71149487	     -1.48543623	     -3.46127056	     -0.45263188	      1.07476316	      0.34288684	      5.42496801	      6.47230549	     -2.25390976	    -11.52626765	      0.79851535	     -8.55304262	      2.11442046	     12.97145222	     -3.41525907	     -4.87890774	    -65.27362507	     -0.99798328	     -3.92429163	      4.17891269	      1.04090693	      5.48859573	     -0.73410127
      0.82133333	      2.73900061	     -1.48208847	     -3.48005119	     -0.44758250	      1.07532008	      0.34318330	      4.98995907	      6.48846196	     -2.06515434	    -11.31647676	      0.90443046	     -8.56093829	      2.12252240	     13.49056329	     -3.40094469	     -4.68771991	    -64.95351000	     -0.63132306	     -3.95759906	      4.16047918	      0.98604479	      5.41567697	     -0.65173599
      0.82550000	      2.76988377	     -1.45551427	     -3.53734724	     -0.44252501	      1.07587204	      0.34346021	      4.55691954	      6.47395400	     -1.87872862	    -11.12761997	      1.07806624	     -8.63724801	      2.13104846	     13.97572697	     -3.35502495	     -4.53548826	    -64.56945553	     -0.05637836	     -4.01041679	      4.13646138	      0.92685968	      5.36127546	     -0.54598523
      0.82966667	      2.79506492	     -1.42293352	     -3.60506724	     -0.43746004	      1.07640443	      0.34373117	      4.13044304	      6.45096490	     -1.69151035	    -10.94289514	      1.22446652	     -8.70626862	      2.13769807	     14.44696284	     -3.29940551	     -4.39317180	    -64.11871713	      0.44028061	     -4.03200408	      4.10972785	      0.86157168	      5.30763075	     -0.43873404
      0.83383333	      2.82150477	     -1.39541538	     -3.67110791	     -0.43241461	      1.07691422	      0.34398047	      3.70036559	      6.43214323	     -1.50216450	    -10.74773663	      1.36524051	     -8.78125725	      2.14242638	     14.90076501	     -3.24457079	     -4.25242985	    -63.60713169	      0.90832441	     -4.06712862	      4.08126364	      0.79978255	      5.26377829	     -0.33300087
      0.83800000	      2.85161807	     -1.36909610	     -3.74345250	     -0.42736605	      1.07740165	      0.34424621	      3.26273317	      6.41449491	     -1.30732922	    -10.54709795	      1.50696994	     -8.86624958	      2.14561348	     15.33017249	     -3.19224741	     -4.12413270	    -63.03705808	      1.37537051	     -4.11578384	      4.04847064	      0.73484410	      5.21668880	     -0.22069562
      0.84216667	      2.86763425	     -1.33953005	     -3.81279793	     -0.42231457	      1.07785304	      0.34450746	      2.83769697	      6.39272670	     -1.11570113	    -10.33941438	      1.63729851	     -8.94945518	      2.14706422	     15.75745076	     -3.13366997	     -3.99741393	    -62.40638020	      1.79860161	     -4.18216080	      4.01340396	      0.67954476	      5.16783593	     -0.11003314
      0.84633333	      2.90095498	     -1.30458598	     -3.93937027	     -0.41732639	      1.07830359	      0.34479581	      2.40808818	      6.36089924	     -0.90259839	    -10.15965942	      1.78612956	     -9.11238333	      2.14555490	     16.13623538	     -3.07561529	     -3.93132462	    -61.71332380	      2.30100595	     -4.24812178	      3.93825263	      0.53750971	      5.14356260	      0.06873127
      0.85050000	      2.87534110	     -1.27520461	     -3.97565592	     -0.41229174	      1.07863583	      0.34489699	      2.02931115	      6.32701820	     -0.77271452	     -9.94742040	      1.83990448	     -9.12408683	      2.14521998	     16.57983805	     -2.99364842	     -3.75646050	    -60.95754100	      2.47088424	     -4.30772382	      3.92141183	      0.48982173	      5.13729343	      0.10775442
      0.85466667	      2.91935173	     -1.26994476	     -4.01627242	     -0.40715795	      1.07906701	      0.34521024	      1.53705049	      6.33701258	     -0.55147538	     -9.67310390	      1.98994439	     -9.20708948	      2.14279555	     16.91162990	     -2.95978428	     -3.63533735	    -60.15463087	      2.87885724	     -4.51947412	      3.88041373	      0.53694793	      5.05269931	      0.22087368
      0.85883333	      2.93748114	     -1.24245455	     -4.09536198	     -0.40211832	      1.07942274	      0.34544758	      1.09812671	      6.31008546	     -0.34889844	     -9.43760974	      2.11983974	     -9.31389675	      2.13793783	     17.25152868	     -2.89582724	     -3.53972930	    -59.28261079	      3.22068450	     -4.73292783	      3.83004787	      0.47647194	      5.01105210	      0.32988021
      0.86300000	      2.95040038	     -1.22867318	     -4.16495059	     -0.39705275	      1.07974394	      0.34565537	      0.65810879	      6.29533276	     -0.15515495	     -9.19789007	      2.22871557	     -9.41334267	      2.13148871	     17.57436794	     -2.84228927	     -3.43880813	    -58.35586178	      3.49091169	     -4.95616768	      3.77454323	      0.42584695	      4.98058584	      0.43973515
      0.86716667	      2.98300694	     -1.20254455	     -4.29528351	     -0.39206235	      1.08007071	      0.34593378	      0.21127721	      6.26384774	      0.08225399	     -8.97804749	      2.34833473	     -9.60934828	      2.11450279	     17.84585781	     -2.79014384	     -3.41685885	    -57.35754871	      3.74366513	     -5.33901634	      3.65247365	      0.25391449	      4.93323485	      0.63891402
      0.87133333	      2.98004968	     -1.20434392	     -4.29990134	     -0.38697283	      1.08029780	      0.34606984	     -0.22761186	      6.26647669	      0.23093543	     -8.69766040	      2.41270156	     -9.64984439	      2.10694930	     18.15464556	     -2.73706892	     -3.25941889	    -56.32083803	      3.88421683	     -5.52234530	      3.59780721	      0.28892698	      4.94510541	      0.71985845
      0.87550000	      2.98075971	     -1.19249718	     -4.35787381	     -0.38186238	      1.08052616	      0.34624026	     -0.66655681	      6.24726734	      0.40338706	     -8.43110463	      2.51534433	     -9.74221213	      2.09539654	     18.41930382	     -2.67852853	     -3.16925083	    -55.21122607	      4.06457797	     -5.87051315	      3.52154967	      0.29111709	      4.91367952	      0.82374124
      0.87966667	      2.89900715	     -1.19302490	     -4.39939694	     -0.37687707	      1.08055834	      0.34626322	     -0.98563814	      6.23620256	      0.49871106	     -8.21706940	      2.57266801	     -9.77834946	      2.09066994	     18.77542845	     -2.61894496	     -3.02856328	    -54.07247263	      4.17777650	     -6.03192597	      3.49066375	      0.21151182	      4.95748056	      0.85086887
      0.88383333	      2.97036828	     -1.17280210	     -4.52789542	     -0.37177519	      1.08084839	      0.34660954	     -1.50715096	      6.20571724	      0.77434819	     -7.93661715	      2.72193472	     -9.98632543	      2.06070479	     18.89562055	     -2.57849532	     -3.07886694	    -52.81859632	      4.20465776	     -6.90086768	      3.31060240	      0.11862144	      4.82800330	      1.06842032
      0.88800000	      2.94258005	     -1.19289755	     -4.51236723	     -0.36664349	      1.08091533	      0.34668240	     -1.92941094	      6.22292753	      0.88306948	     -7.63789087	      2.76873278	    -10.00681504	      2.04977734	     19.13773366	     -2.53491681	     -2.92978533	    -51.55769349	      4.24841024	     -7.11365849	      3.24508960	      0.20438559	      4.91542114	      1.13097636
      0.89216667	      2.95997244	     -1.18131914	     -4.60620379	     -0.36158683	      1.08103681	      0.34684067	     -2.37828521	      6.18962795	      1.07009642	     -7.38279283	      2.86546730	    -10.15330117	      2.01342362	     19.28483864	     -2.48040789	     -2.92299115	    -50.20248460	      4.15070812	     -7.88903143	      3.04097959	      0.06318703	      4.82569102	      1.30491251
      0.89633333	      2.96294326	     -1.18988311	     -4.62761429	     -0.35647456	      1.08109167	      0.34691340	     -2.82596919	      6.18220552	      1.18833172	     -7.09963150	      2.92573444	    -10.22484524	      1.97149263	     19.43479534	     -2.42715542	     -2.83987615	    -48.80594853	      4.03426429	     -8.43818299	      2.81164210	      0.03504036	      4.84808922	      1.44695500
      0.90050000	      2.90069078	     -1.22521495	     -4.61491791	     -0.35134342	      1.08099506	      0.34695910	     -3.20660706	      6.21337559	      1.27155448	     -6.81276216	      2.98903739	    -10.23893020	      1.95813825	     19.64289275	     -2.40276318	     -2.72477261	    -47.39386876	      4.10144296	     -8.65531145	      2.73623106	      0.13798271	      4.95551241	      1.47539275
      0.90466667	      2.85923586	     -1.24228741	     -4.62802588	     -0.34613751	      1.08091806	      0.34703361	     -3.61666395	      6.21795990	      1.37859510	     -6.51985195	      3.07743158	    -10.29150179	      1.93885533	     19.78725762	     -2.36267290	     -2.65907968	    -45.90067534	      4.08754738	     -9.11082018	      2.62640400	      0.23039038	      4.96659074	      1.53082936
